<svg xmlns="http://www.w3.org/2000/svg" viewBox="0 0 512 512" role="img" aria-label="Bitten carrot app icon">
  <rect width="512" height="512" rx="118" fill="#43B02A"/>
  <path d="M317 91c23-31 55-47 95-47-4 39-22 69-55 91 34-6 65 2 94 24-29 24-61 33-98 25 10 31 6 60-12 89-25-20-40-46-46-78-22 29-49 46-82 51 6-36 24-64 54-84-31-9-54-29-70-59 38-10 71-4 120-12Z" fill="#0B6623"/>
  <path d="M363 173c15 0 27 12 27 27 0 15-12 27-27 27-15 0-27-12-27-27 0-15 12-27 27-27Z" fill="#43B02A"/>
  <path d="M327 190c33 17 48 43 43 78-9 64-73 146-168 210-16 11-37 1-39-18-17-113-1-215 45-259 25-24 59-28 94-11l11 5c5 3 9 4 14-5Z" fill="#FF8200"/>
  <path d="M230 210c22-15 53-19 83-4 13 6 23 16 30 29-41 7-86 1-113-25Z" fill="#FFB36B" opacity=".58"/>
  <path d="M209 284c41 18 81 24 119 18M197 345c32 15 64 19 95 12M194 407c20 9 41 10 62 4" stroke="#D86700" stroke-width="17" stroke-linecap="round" opacity=".55"/>
  <circle cx="286" cy="202" r="31" fill="#43B02A"/>
  <circle cx="304" cy="180" r="16" fill="#43B02A"/>
</svg>
